<svg viewBox="0 0 19 19" width="30" height="30" xmlns="http://www.w3.org/2000/svg"><path fill="#808080" fill-rule="evenodd" clip-rule="evenodd" d="M 19 9.5 C 19 14.747 14.747 19 9.5 19 C 4.253 19 0 14.747 0 9.5 C 0 4.253 4.253 0 9.5 0 C 14.747 0 19 4.253 19 9.5 Z M 9.944 11.446 C 9.688 11.668 9.312 11.668 9.056 11.446 L 2.672 6.001 L 2.672 13.085 C 2.672 13.46 2.979 13.768 3.355 13.768 L 15.645 13.768 C 16.021 13.768 16.328 13.46 16.328 13.085 L 16.328 5.983 L 9.944 11.446 Z M 9.5 10.934 L 16.021 5.352 C 15.918 5.284 15.782 5.232 15.645 5.232 L 3.355 5.232 C 3.218 5.232 3.082 5.284 2.979 5.352 L 9.5 10.934 Z"/></svg>