<svg viewBox="0 0 32 32" width="32px" height="32px" xmlns="http://www.w3.org/2000/svg"><path fill="#808080" fill-rule="evenodd" clip-rule="evenodd" d="M 31 16 C 31 24.285 24.285 31 16 31 C 7.715 31 1 24.285 1 16 C 1 7.715 7.715 1 16 1 C 24.285 1 31 7.715 31 16 Z M 16.701 19.073 C 16.297 19.423 15.703 19.423 15.299 19.073 L 5.219 10.475 L 5.219 21.661 C 5.219 22.253 5.704 22.739 6.297 22.739 L 25.703 22.739 C 26.296 22.739 26.781 22.253 26.781 21.661 L 26.781 10.447 L 16.701 19.073 Z M 16 18.264 L 26.296 9.451 C 26.134 9.343 25.919 9.261 25.703 9.261 L 6.297 9.261 C 6.081 9.261 5.866 9.343 5.704 9.451 L 16 18.264 Z"/></svg>