<svg viewBox="0 0 19 19" width="30" height="30" xmlns="http://www.w3.org/2000/svg"><path fill="#808080" fill-rule="evenodd" clip-rule="evenodd" d="M 9.508 0 C 4.25 0 0 4.354 0 9.741 C 0 14.047 2.723 17.692 6.501 18.981 C 6.974 19.079 7.147 18.772 7.147 18.514 C 7.147 18.288 7.131 17.514 7.131 16.707 C 4.486 17.288 3.935 15.546 3.935 15.546 C 3.51 14.418 2.88 14.127 2.88 14.127 C 2.015 13.531 2.943 13.531 2.943 13.531 C 3.904 13.595 4.408 14.53 4.408 14.53 C 5.258 16.014 6.627 15.595 7.178 15.337 C 7.256 14.708 7.509 14.272 7.776 14.031 C 5.667 13.805 3.447 12.966 3.447 9.225 C 3.447 8.16 3.825 7.289 4.423 6.612 C 4.329 6.37 3.998 5.37 4.518 4.032 C 4.518 4.032 5.321 3.773 7.131 5.032 C 7.906 4.818 8.705 4.71 9.508 4.709 C 10.31 4.709 11.129 4.822 11.885 5.032 C 13.695 3.773 14.498 4.032 14.498 4.032 C 15.018 5.37 14.687 6.37 14.592 6.612 C 15.206 7.289 15.568 8.16 15.568 9.225 C 15.568 12.966 13.349 13.788 11.224 14.031 C 11.57 14.337 11.869 14.918 11.869 15.837 C 11.869 17.143 11.853 18.191 11.853 18.514 C 11.853 18.772 12.027 19.079 12.499 18.982 C 16.276 17.691 19 14.047 19 9.741 C 19.016 4.354 14.75 0 9.508 0 Z"/></svg>