<svg viewBox="0 0 32 32" width="32px" height="32px" xmlns="http://www.w3.org/2000/svg"><path fill="#808080" fill-rule="evenodd" clip-rule="evenodd" d="M 16.013 1 C 7.71 1 1 7.875 1 16.38 C 1 23.18 5.3 28.935 11.265 30.97 C 12.012 31.125 12.285 30.64 12.285 30.233 C 12.285 29.874 12.26 28.653 12.26 27.38 C 8.083 28.297 7.213 25.546 7.213 25.546 C 6.542 23.765 5.547 23.304 5.547 23.304 C 4.182 22.365 5.647 22.365 5.647 22.365 C 7.166 22.464 7.96 23.942 7.96 23.942 C 9.302 26.285 11.463 25.623 12.333 25.216 C 12.457 24.223 12.856 23.535 13.278 23.154 C 9.948 22.797 6.443 21.473 6.443 15.565 C 6.443 13.885 7.04 12.509 7.983 11.44 C 7.835 11.058 7.313 9.479 8.133 7.367 C 8.133 7.367 9.402 6.957 12.26 8.945 C 13.483 8.607 14.745 8.437 16.013 8.435 C 17.279 8.435 18.572 8.613 19.765 8.945 C 22.623 6.957 23.892 7.367 23.892 7.367 C 24.713 9.479 24.19 11.058 24.04 11.44 C 25.01 12.509 25.581 13.885 25.581 15.565 C 25.581 21.473 22.077 22.77 18.722 23.154 C 19.268 23.637 19.74 24.555 19.74 26.004 C 19.74 28.068 19.715 29.723 19.715 30.233 C 19.715 30.64 19.99 31.125 20.735 30.972 C 26.699 28.933 31 23.18 31 16.38 C 31.025 7.875 24.29 1 16.013 1 Z"/></svg>