<svg viewBox="0 0 32 32" width="32px" height="32px" xmlns="http://www.w3.org/2000/svg"><path fill="#808080" fill-rule="evenodd" clip-rule="evenodd" d="M 31 16 C 31 24.285 24.285 31 16 31 C 7.715 31 1 24.285 1 16 C 1 7.715 7.715 1 16 1 C 24.285 1 31 7.715 31 16 Z M 10.714 24.684 L 7.026 24.684 L 7.026 12.886 L 10.714 12.886 L 10.714 24.684 Z M 8.77 11.409 L 8.741 11.409 C 7.404 11.409 6.539 10.506 6.539 9.363 C 6.539 8.195 7.433 7.316 8.793 7.316 C 10.154 7.316 10.986 8.195 11.016 9.363 C 11.025 10.499 10.161 11.409 8.77 11.409 Z M 25.46 24.684 L 21.28 24.684 L 21.28 18.581 C 21.28 16.986 20.628 15.892 19.186 15.892 C 18.088 15.892 17.474 16.631 17.193 17.343 C 17.091 17.594 17.105 17.946 17.105 18.31 L 17.105 24.684 L 12.959 24.684 C 12.959 24.684 13.011 13.87 12.959 12.886 L 17.105 12.886 L 17.105 14.74 C 17.346 13.926 18.671 12.774 20.784 12.774 C 23.405 12.774 25.46 14.475 25.46 18.124 L 25.46 24.684 Z"></path></svg>