<svg viewBox="0 0 19 19" width="30" height="30" xmlns="http://www.w3.org/2000/svg"><path fill="#808080" fill-rule="evenodd" clip-rule="evenodd" d="M 19 9.5 C 19 14.747 14.747 19 9.5 19 C 4.253 19 0 14.747 0 9.5 C 0 4.253 4.253 0 9.5 0 C 14.747 0 19 4.253 19 9.5 Z M 6.152 15 L 3.817 15 L 3.817 7.5280000000000005 L 6.152 7.5280000000000005 L 6.152 15 Z M 4.921 6.592 L 4.9030000000000005 6.592 C 4.056 6.592 3.508 6.021 3.508 5.296 C 3.508 4.557 4.074 4 4.9350000000000005 4 C 5.797 4 6.325 4.557 6.344 5.296 C 6.349 6.016 5.802 6.592 4.921 6.592 Z M 15.491 15 L 12.844 15 L 12.844 11.135 C 12.844 10.125 12.431000000000001 9.432 11.518 9.432 C 10.822 9.432 10.433 9.9 10.255 10.35 C 10.191 10.509 10.2 10.733 10.2 10.963 L 10.2 15 L 7.574 15 C 7.574 15 7.607 8.151 7.574 7.5280000000000005 L 10.2 7.5280000000000005 L 10.2 8.702 C 10.353 8.187 11.192 7.457 12.53 7.457 C 14.19 7.457 15.491 8.534 15.491 10.845 L 15.491 15 Z"/></svg>