<svg viewBox="0 0 32 33" width="32px" height="32pxs" xmlns="http://www.w3.org/2000/svg" role="button" ><path fill="#808080" fill-rule="evenodd" clip-rule="evenodd" d="M 1.001 6.064 C 1.001 5.203 1.721 4.5 2.608 4.5 L 29.389 4.5 C 30.628 4.5 31.401 5.806 30.783 6.848 C 30.497 7.332 29.964 7.631 29.389 7.631 L 2.608 7.631 C 1.721 7.631 1.001 6.928 1.001 6.064 Z M 1.001 26.936 C 1.001 26.072 1.721 25.369 2.608 25.369 L 29.389 25.369 C 30.628 25.369 31.401 26.674 30.783 27.717 C 30.497 28.201 29.964 28.5 29.389 28.5 L 2.608 28.5 C 1.721 28.5 1.001 27.799 1.001 26.936 Z M 2.608 14.935 C 1.373 14.935 0.6 16.239 1.218 17.282 C 1.504 17.767 2.033 18.064 2.608 18.064 L 29.389 18.064 C 30.628 18.064 31.401 16.761 30.783 15.718 C 30.497 15.232 29.964 14.935 29.389 14.935 L 2.608 14.935 Z"/></svg>